  0
SECTION
  2
HEADER
  9
$ACADVER
  1
AC1009
  9
$INSBASE
 10
0.0
 20
0.0
 30
0.0
  9
$EXTMIN
 10
0.0
 20
0.0
 30
0.0
  9
$EXTMAX
 10
0.0
 20
0.0
 30
0.0
  0
ENDSEC
  0
SECTION
  2
TABLES
  0
TABLE
  2
VPORT
 70
0
  0
ENDTAB
  0
TABLE
  2
LTYPE
 70
1
  0
LTYPE
  2
CONTINUOUS
 70
0
  3
Solid line
 72
65
 73
0
 40
0.0
  0
ENDTAB
  0
TABLE
  2
LAYER
 70
1
  0
LAYER
  2
0
 70
64
 62
7
  6
continuous
  0
ENDTAB
  0
TABLE
  2
STYLE
 70
1
  0
STYLE
  2
STANDARD
 70
0
 40
0
 41
1.0
 50
0.0
 71
0
 42
1
 3
ARIAL.TTF
 4

  0
ENDTAB
  0
TABLE
  2
VIEW
 70
0
  0
ENDTAB
  0
ENDSEC
  0
SECTION
  2
BLOCKS
  0
BLOCK
  8
0
  2
SHAPE2DVIEW001
 70
0
 10
0.0
 20
0.0
 30
0.0
  3
SHAPE2DVIEW001
  0
LINE
  8
0
 62
0
 10
26.000000000000004
 20
-17.5
 30
0.0
 11
21.000000000000004
 21
-17.5
 31
0.0
  0
LINE
  8
0
 62
0
 10
26.000000000000004
 20
-17.5
 30
0.0
 11
26.000000000000004
 21
-21.0
 31
0.0
  0
LINE
  8
0
 62
0
 10
21.000000000000004
 20
-17.5
 30
0.0
 11
21.000000000000004
 21
-18.7
 31
0.0
  0
LINE
  8
0
 62
0
 10
-94.0
 20
-21.0
 30
0.0
 11
26.0
 21
-21.0
 31
0.0
  0
LINE
  8
0
 62
0
 10
21.000000000000004
 20
-18.7
 30
0.0
 11
18.600000000000005
 21
-18.7
 31
0.0
  0
LINE
  8
0
 62
0
 10
-94.0
 20
-17.5
 30
0.0
 11
-94.0
 21
-21.0
 31
0.0
  0
LINE
  8
0
 62
0
 10
18.600000000000005
 20
-18.7
 30
0.0
 11
18.600000000000005
 21
-17.5
 31
0.0
  0
LINE
  8
0
 62
0
 10
-94.0
 20
-17.5
 30
0.0
 11
-89.0
 21
-17.5
 31
0.0
  0
LINE
  8
0
 62
0
 10
18.600000000000005
 20
-17.5
 30
0.0
 11
14.000000000000004
 21
-17.5
 31
0.0
  0
LINE
  8
0
 62
0
 10
-89.0
 20
-17.5
 30
0.0
 11
-89.0
 21
-18.7
 31
0.0
  0
LINE
  8
0
 62
0
 10
14.000000000000004
 20
-17.5
 30
0.0
 11
14.000000000000004
 21
-14.5
 31
0.0
  0
LINE
  8
0
 62
0
 10
-89.0
 20
-18.7
 30
0.0
 11
-86.6
 21
-18.7
 31
0.0
  0
LINE
  8
0
 62
0
 10
14.000000000000004
 20
-14.5
 30
0.0
 11
18.600000000000005
 21
-14.5
 31
0.0
  0
LINE
  8
0
 62
0
 10
-86.60000000000001
 20
-18.7
 30
0.0
 11
-86.60000000000001
 21
-17.5
 31
0.0
  0
LINE
  8
0
 62
0
 10
18.600000000000005
 20
-14.5
 30
0.0
 11
18.600000000000005
 21
-13.299999999999999
 31
0.0
  0
LINE
  8
0
 62
0
 10
-86.60000000000001
 20
-17.5
 30
0.0
 11
-82.0
 21
-17.5
 31
0.0
  0
LINE
  8
0
 62
0
 10
18.600000000000005
 20
-13.299999999999999
 30
0.0
 11
21.000000000000004
 21
-13.299999999999999
 31
0.0
  0
LINE
  8
0
 62
0
 10
-82.0
 20
-17.5
 30
0.0
 11
-82.0
 21
-14.5
 31
0.0
  0
LINE
  8
0
 62
0
 10
21.000000000000004
 20
-13.299999999999999
 30
0.0
 11
21.000000000000004
 21
-14.5
 31
0.0
  0
LINE
  8
0
 62
0
 10
-82.0
 20
-14.5
 30
0.0
 11
-86.6
 21
-14.5
 31
0.0
  0
LINE
  8
0
 62
0
 10
21.000000000000004
 20
-14.5
 30
0.0
 11
26.000000000000004
 21
-14.5
 31
0.0
  0
LINE
  8
0
 62
0
 10
-86.60000000000001
 20
-14.5
 30
0.0
 11
-86.60000000000001
 21
-13.299999999999999
 31
0.0
  0
LINE
  8
0
 62
0
 10
26.000000000000004
 20
-14.5
 30
0.0
 11
26.000000000000004
 21
-7.7
 31
0.0
  0
LINE
  8
0
 62
0
 10
-86.60000000000001
 20
-13.299999999999999
 30
0.0
 11
-89.0
 21
-13.299999999999999
 31
0.0
  0
LINE
  8
0
 62
0
 10
26.000000000000004
 20
-7.7
 30
0.0
 11
29.000000000000007
 21
-7.7
 31
0.0
  0
LINE
  8
0
 62
0
 10
-89.0
 20
-13.299999999999999
 30
0.0
 11
-89.0
 21
-14.5
 31
0.0
  0
LINE
  8
0
 62
0
 10
29.000000000000007
 20
-7.7
 30
0.0
 11
29.000000000000007
 21
7.7
 31
0.0
  0
LINE
  8
0
 62
0
 10
-89.0
 20
-14.5
 30
0.0
 11
-94.0
 21
-14.5
 31
0.0
  0
LINE
  8
0
 62
0
 10
29.000000000000007
 20
7.7
 30
0.0
 11
26.000000000000004
 21
7.7
 31
0.0
  0
LINE
  8
0
 62
0
 10
-94.0
 20
-14.5
 30
0.0
 11
-94.0
 21
-7.7
 31
0.0
  0
LINE
  8
0
 62
0
 10
26.000000000000004
 20
7.7
 30
0.0
 11
26.000000000000004
 21
14.5
 31
0.0
  0
LINE
  8
0
 62
0
 10
-94.0
 20
-7.7
 30
0.0
 11
-97.0
 21
-7.7
 31
0.0
  0
LINE
  8
0
 62
0
 10
26.000000000000004
 20
14.5
 30
0.0
 11
21.000000000000004
 21
14.5
 31
0.0
  0
LINE
  8
0
 62
0
 10
-97.0
 20
-7.7
 30
0.0
 11
-97.0
 21
7.7
 31
0.0
  0
LINE
  8
0
 62
0
 10
21.000000000000004
 20
14.5
 30
0.0
 11
21.000000000000004
 21
13.299999999999999
 31
0.0
  0
LINE
  8
0
 62
0
 10
-97.0
 20
7.7
 30
0.0
 11
-94.0
 21
7.7
 31
0.0
  0
LINE
  8
0
 62
0
 10
21.000000000000004
 20
13.299999999999999
 30
0.0
 11
18.600000000000005
 21
13.299999999999999
 31
0.0
  0
LINE
  8
0
 62
0
 10
-94.0
 20
7.7
 30
0.0
 11
-94.0
 21
14.5
 31
0.0
  0
LINE
  8
0
 62
0
 10
18.600000000000005
 20
13.299999999999999
 30
0.0
 11
18.600000000000005
 21
14.5
 31
0.0
  0
LINE
  8
0
 62
0
 10
-94.0
 20
14.5
 30
0.0
 11
-89.0
 21
14.5
 31
0.0
  0
LINE
  8
0
 62
0
 10
18.600000000000005
 20
14.5
 30
0.0
 11
14.000000000000004
 21
14.5
 31
0.0
  0
LINE
  8
0
 62
0
 10
-89.0
 20
14.5
 30
0.0
 11
-89.0
 21
13.299999999999999
 31
0.0
  0
LINE
  8
0
 62
0
 10
14.000000000000004
 20
14.5
 30
0.0
 11
14.000000000000004
 21
17.5
 31
0.0
  0
LINE
  8
0
 62
0
 10
-89.0
 20
13.299999999999999
 30
0.0
 11
-86.6
 21
13.299999999999999
 31
0.0
  0
LINE
  8
0
 62
0
 10
14.000000000000004
 20
17.5
 30
0.0
 11
18.600000000000005
 21
17.5
 31
0.0
  0
LINE
  8
0
 62
0
 10
-86.60000000000001
 20
13.299999999999999
 30
0.0
 11
-86.60000000000001
 21
14.5
 31
0.0
  0
LINE
  8
0
 62
0
 10
18.600000000000005
 20
17.5
 30
0.0
 11
18.600000000000005
 21
18.7
 31
0.0
  0
LINE
  8
0
 62
0
 10
-86.60000000000001
 20
14.5
 30
0.0
 11
-82.0
 21
14.5
 31
0.0
  0
LINE
  8
0
 62
0
 10
18.600000000000005
 20
18.7
 30
0.0
 11
21.000000000000004
 21
18.7
 31
0.0
  0
LINE
  8
0
 62
0
 10
-82.0
 20
14.5
 30
0.0
 11
-82.0
 21
17.5
 31
0.0
  0
LINE
  8
0
 62
0
 10
21.000000000000004
 20
18.7
 30
0.0
 11
21.000000000000004
 21
17.5
 31
0.0
  0
LINE
  8
0
 62
0
 10
-82.0
 20
17.5
 30
0.0
 11
-86.6
 21
17.5
 31
0.0
  0
LINE
  8
0
 62
0
 10
21.000000000000004
 20
17.5
 30
0.0
 11
26.000000000000004
 21
17.5
 31
0.0
  0
LINE
  8
0
 62
0
 10
-86.60000000000001
 20
17.5
 30
0.0
 11
-86.60000000000001
 21
18.7
 31
0.0
  0
LINE
  8
0
 62
0
 10
26.000000000000004
 20
21.0
 30
0.0
 11
26.000000000000004
 21
17.5
 31
0.0
  0
LINE
  8
0
 62
0
 10
-86.60000000000001
 20
18.7
 30
0.0
 11
-89.0
 21
18.7
 31
0.0
  0
LINE
  8
0
 62
0
 10
-94.0
 20
21.0
 30
0.0
 11
26.0
 21
21.0
 31
0.0
  0
LINE
  8
0
 62
0
 10
-89.0
 20
18.7
 30
0.0
 11
-89.0
 21
17.5
 31
0.0
  0
LINE
  8
0
 62
0
 10
-94.0
 20
21.0
 30
0.0
 11
-94.0
 21
17.5
 31
0.0
  0
LINE
  8
0
 62
0
 10
-89.0
 20
17.5
 30
0.0
 11
-94.0
 21
17.5
 31
0.0
  0
CIRCLE
  8
0
 62
0
 10
-45.5
 20
-2.756712547e-07
 30
0.0
 40
2.0
  0
ENDBLK
  0
ENDSEC
  0
SECTION
  2
ENTITIES
  0
INSERT
  2
SHAPE2DVIEW001
  8
0
 62
0
 10
0.0
 20
0.0
 30
0.0
  0
ENDSEC
  0
EOF
